# xmcd CD database file
#
# Track frame offsets:
#	150
#	19210
#	50855
#	71620
#	85630
#	106007
#	131610
#	150807
#	157022
#	171765
#	195995
#	215482
#	241937
#	265925
#
# Disc length: 3635 seconds
#
# Revision: 0
# Processed by: cddbd v1.5.1PL0 Copyright (c) Steve Scherf et al.
# Submitted via: CDex 1.51
#
DISCID=b20e310e
DTITLE=溝口肇 - 世界の車窓から Next Journey
DYEAR=2004
DGENRE=New Age
TTITLE0=Brownie
TTITLE1=世界の車窓から(2004 Version)
TTITLE2=朝もやの中の疾走
TTITLE3=Jumping Cricket
TTITLE4=A Mirage Of New York
TTITLE5=Quiet Place
TTITLE6=Shine
TTITLE7=Interlude?世界の車窓から(Sunrise Version)
TTITLE8=Rain Train
TTITLE9=石の記憶
TTITLE10=Blue Eyes
TTITLE11=Night Night
TTITLE12=Paris Face Science
TTITLE13=Epilogue?世界の車窓から(Cello Solo Version)
EXTD=YEAR: 2004
EXTT0=
EXTT1=
EXTT2=
EXTT3=
EXTT4=
EXTT5=
EXTT6=
EXTT7=
EXTT8=
EXTT9=
EXTT10=
EXTT11=
EXTT12=
EXTT13=
PLAYORDER=
